<?xml version="1.0" standalone="no"?>
<!DOCTYPE svg PUBLIC "-//W3C//DTD SVG 20010904//EN"
 "http://www.w3.org/TR/2001/REC-SVG-20010904/DTD/svg10.dtd">
<svg version="1.0" xmlns="http://www.w3.org/2000/svg"
 width="700.000000pt" height="700.000000pt" viewBox="0 0 700.000000 700.000000"
 preserveAspectRatio="xMidYMid meet">
<metadata>
Created by potrace 1.11, written by Peter Selinger 2001-2013
</metadata>
<g transform="translate(0.000000,700.000000) scale(0.100000,-0.100000)"
fill="#000000" stroke="none">
<path d="M3478 6566 c-1 -2 -70 -6 -151 -10 -82 -4 -154 -9 -160 -11 -7 -2
-34 -6 -62 -10 -66 -7 -94 -11 -130 -18 -16 -3 -46 -9 -65 -11 -19 -3 -96 -21
-170 -40 -513 -132 -968 -384 -1347 -747 -96 -91 -116 -124 -119 -198 -5 -124
86 -222 212 -226 68 -3 114 21 212 112 156 145 248 215 442 339 130 82 344
182 515 239 112 38 317 90 385 99 25 3 56 8 70 10 247 43 577 39 850 -10 879
-158 1618 -750 1964 -1575 37 -88 75 -202 116 -344 15 -52 48 -217 55 -275 4
-30 9 -66 11 -80 8 -55 18 -231 18 -320 -2 -544 -172 -1074 -488 -1515 -156
-219 -416 -478 -610 -610 -160 -109 -223 -146 -361 -215 -203 -100 -415 -177
-565 -206 -14 -2 -31 -7 -38 -9 -7 -2 -34 -7 -60 -11 -26 -3 -49 -8 -52 -9 -3
-2 -33 -7 -65 -10 -33 -4 -63 -9 -66 -11 -10 -6 -230 -18 -329 -18 -144 1
-376 21 -440 39 -8 2 -33 6 -55 10 -138 20 -390 100 -563 178 -313 141 -559
312 -796 552 -435 440 -703 1020 -753 1629 -13 150 -5 482 12 546 2 8 6 36 10
62 24 200 115 499 213 708 65 137 71 155 68 212 -9 187 -231 273 -368 143 -36
-34 -127 -223 -188 -390 -17 -49 -36 -99 -40 -110 -34 -79 -111 -417 -125
-545 -4 -36 -9 -74 -11 -85 -21 -108 -20 -554 0 -661 2 -11 7 -45 10 -75 7
-59 12 -91 27 -157 5 -23 12 -59 15 -80 16 -100 138 -487 174 -550 6 -9 34
-69 64 -132 93 -196 214 -392 328 -533 24 -30 54 -68 67 -85 27 -36 68 -81
185 -202 114 -117 143 -144 320 -287 44 -36 238 -165 321 -214 308 -181 703
-321 1060 -374 314 -46 556 -49 875 -9 103 13 147 20 245 39 214 42 525 153
751 269 659 338 1196 932 1457 1611 68 176 143 442 161 570 3 22 8 51 10 65 3
14 7 48 11 75 3 28 8 64 10 80 27 172 16 619 -21 810 -4 22 -11 64 -19 109 -9
58 -57 243 -87 336 -106 329 -251 612 -455 888 -371 501 -884 878 -1468 1078
-119 41 -253 79 -315 90 -14 3 -32 7 -40 9 -8 3 -33 7 -55 10 -22 4 -47 8 -55
10 -61 17 -234 35 -379 41 -80 3 -151 7 -158 9 -6 2 -13 2 -15 1z"/>
<path d="M4689 4949 c-20 -5 -191 -56 -380 -114 -189 -59 -353 -108 -364 -111
-11 -2 -31 -8 -45 -13 -14 -6 -77 -26 -140 -45 -1049 -320 -1021 -311 -1064
-352 -44 -43 -50 -56 -115 -269 -29 -94 -67 -219 -86 -280 -19 -60 -63 -204
-99 -320 -196 -637 -327 -1068 -340 -1117 -45 -175 100 -320 274 -272 25 6
185 55 355 107 171 53 423 130 560 172 138 42 284 87 325 100 41 13 202 62
358 110 335 102 337 103 384 150 38 38 54 80 152 405 45 150 236 772 282 920
20 63 42 135 50 160 7 25 33 110 58 190 110 357 109 354 91 422 -28 113 -141
182 -256 157z m-294 -581 c-8 -24 -73 -236 -145 -473 -72 -236 -137 -448 -145
-470 -7 -22 -37 -119 -65 -215 -29 -96 -58 -180 -64 -186 -6 -6 -101 -38 -211
-72 -110 -33 -319 -97 -465 -142 -146 -45 -323 -100 -395 -122 -71 -22 -157
-48 -190 -58 -33 -10 -75 -23 -93 -29 -19 -6 -30 -6 -27 0 4 5 8 17 10 26 3
17 152 503 245 803 21 69 67 217 100 330 34 113 67 210 74 216 6 6 126 46 266
88 140 43 266 81 280 86 14 5 189 59 390 120 201 62 383 118 405 125 22 8 41
14 42 15 1 0 -5 -19 -12 -42z"/>
</g>
</svg>
